HIERARCHY
ROOT Hips
{
 OFFSET 0.000000 0.000000 0.000000
 CHANNELS 6 Xposition Yposition Zposition Yrotation Xrotation Zrotation
 JOINT Chest
 {
  OFFSET 0.000000 9.588913 -0.003946
  CHANNELS 3 Yrotation Xrotation Zrotation
  JOINT Chest2
  {
   OFFSET 0.000000 9.541882 0.008053
   CHANNELS 3 Yrotation Xrotation Zrotation
   JOINT Chest3
   {
    OFFSET 0.000000 9.501360 0.000000
    CHANNELS 3 Yrotation Xrotation Zrotation
    JOINT Chest4
    {
     OFFSET 0.000000 9.491660 0.000000
     CHANNELS 3 Yrotation Xrotation Zrotation
     JOINT Neck
     {
      OFFSET 0.000000 14.331917 0.000000
      CHANNELS 3 Yrotation Xrotation Zrotation
      JOINT Head
      {
       OFFSET 0.000000 8.884799 0.017034
       CHANNELS 3 Yrotation Xrotation Zrotation
       End Site
       {
        OFFSET 0.000000 16.896195 0.008993
       }
      }
     }
     JOINT RightCollar
     {
      OFFSET -2.923010 9.499495 0.000000
      CHANNELS 3 Yrotation Xrotation Zrotation
      JOINT RightShoulder
      {
       OFFSET -13.795216 0.000000 0.000000
       CHANNELS 3 Yrotation Xrotation Zrotation
       JOINT RightElbow
       {
        OFFSET -30.272209 0.000000 0.000000
        CHANNELS 3 Yrotation Xrotation Zrotation
        JOINT RightWrist
        {
         OFFSET -24.478199 0.000000 0.000000
         CHANNELS 3 Yrotation Xrotation Zrotation
         End Site
         {
          OFFSET -18.090752 0.000000 0.000000
         }
        }
       }
      }
     }
     JOINT LeftCollar
     {
      OFFSET 2.923010 9.499495 0.000000
      CHANNELS 3 Yrotation Xrotation Zrotation
      JOINT LeftShoulder
      {
       OFFSET 13.795216 0.000000 0.000000
       CHANNELS 3 Yrotation Xrotation Zrotation
       JOINT LeftElbow
       {
        OFFSET 30.272209 0.000000 0.000000
        CHANNELS 3 Yrotation Xrotation Zrotation
        JOINT LeftWrist
        {
         OFFSET 24.478199 0.000000 0.000000
         CHANNELS 3 Yrotation Xrotation Zrotation
         End Site
         {
          OFFSET 18.090752 0.000000 0.000000
         }
        }
       }
      }
     }
    }
   }
  }
 }
 JOINT RightHip
 {
  OFFSET -7.826875 0.019532 0.001973
  CHANNELS 3 Yrotation Xrotation Zrotation
  JOINT RightKnee
  {
   OFFSET 0.000000 -40.546152 -0.001885
   CHANNELS 3 Yrotation Xrotation Zrotation
   JOINT RightAnkle
   {
    OFFSET 0.000000 -39.417092 -0.003189
    CHANNELS 3 Yrotation Xrotation Zrotation
    JOINT RightToe
    {
     OFFSET 0.000000 -7.579396 17.243563
     CHANNELS 3 Yrotation Xrotation Zrotation
     End Site
     {
      OFFSET 0.000000 -1.500329 6.694466
     }
    }
   }
  }
 }
 JOINT LeftHip
 {
  OFFSET 7.826875 0.019532 0.001973
  CHANNELS 3 Yrotation Xrotation Zrotation
  JOINT LeftKnee
  {
   OFFSET 0.000000 -40.546152 -0.001885
   CHANNELS 3 Yrotation Xrotation Zrotation
   JOINT LeftAnkle
   {
    OFFSET 0.000000 -39.417092 -0.003189
    CHANNELS 3 Yrotation Xrotation Zrotation
    JOINT LeftToe
    {
     OFFSET 0.000000 -7.579396 17.243563
     CHANNELS 3 Yrotation Xrotation Zrotation
     End Site
     {
      OFFSET 0.000000 -1.500329 6.694466
     }
    }
   }
  }
 }
}
MOTION
Frames: 7
Frame Time: 0.008333
-163.613472 88.174879 197.956774 -29.457028 -7.907271 2.024279 3.619154 2.275492 1.876254 2.059926 1.316375 1.035745 2.578769 1.639567 1.302111 2.059926 1.316376 1.035745 -6.507624 18.029540 0.519557 -7.148884 -6.497172 2.063669 1.251569 -9.490195 -0.554398 -9.455736 -41.507813 70.249962 82.904262 -61.934504 59.400247 -27.814362 2.269301 46.565324 -7.084627 -4.821043 7.481270 5.593065 4.213817 -88.423403 -59.686826 -31.237862 -76.222994 -9.261054 -7.750819 5.505448 0.365067 17.076775 -9.719533 -2.001211 2.310454 -1.019027 -2.569388 -7.955682 7.466839 0.005756 0.045290 -0.001264 6.031290 10.734286 7.149716 8.099603 4.102174 0.078779 -1.131858 -5.258760 -7.629677 -0.021958 -0.073889 0.001502
-163.614901 88.173876 197.966693 -29.511383 -7.886191 2.019138 3.602231 2.264530 1.905730 2.050021 1.310084 1.053003 2.566429 1.631635 1.323613 2.050021 1.310085 1.053004 -6.703695 17.952146 0.477568 -7.358867 -6.570496 2.065465 1.177884 -9.513215 -0.670295 -9.149053 -41.627027 69.911730 83.182229 -61.861003 59.133065 -27.473278 1.848052 46.164871 -6.928296 -4.903799 7.585099 5.487065 4.229578 -88.445854 -59.801596 -31.295619 -76.309105 -9.342636 -7.777535 5.557071 0.390902 17.068294 -9.712786 -1.994839 2.279598 -1.026870 -2.559634 -7.941930 7.473267 0.007377 0.047681 -0.001009 6.050277 10.728822 7.147274 8.123380 4.105495 0.085246 -1.127069 -5.272113 -7.629797 -0.022551 -0.069167 -0.001978
-163.617665 88.173020 197.976782 -29.562779 -7.867762 2.010309 3.582015 2.253505 1.938105 2.037955 1.304282 1.072078 2.551394 1.624312 1.347381 2.037956 1.304283 1.072078 -6.893819 17.878680 0.437228 -7.563248 -6.639606 2.067648 1.123088 -9.535343 -0.794157 -8.908422 -41.727610 69.624502 83.645499 -61.733617 58.695722 -27.147467 1.442750 45.740274 -6.771518 -4.983067 7.698494 5.396809 4.248647 -88.481994 -59.918192 -31.342226 -76.377592 -9.446582 -7.822824 5.637610 0.427751 17.067364 -9.698560 -1.990520 2.244430 -1.033980 -2.557369 -7.925670 7.479330 0.008718 0.048058 -0.001236 6.076070 10.726455 7.150652 8.147407 4.105528 0.091167 -1.128210 -5.285646 -7.628533 -0.023214 -0.063609 -0.005899
-163.621447 88.172286 197.987010 -29.609389 -7.852585 1.998323 3.557917 2.243392 1.973085 2.023391 1.299385 1.093103 2.533246 1.618118 1.373585 2.023392 1.299386 1.093103 -7.081723 17.808924 0.397275 -7.765897 -6.704537 2.069742 1.082827 -9.552470 -0.921087 -8.705520 -41.819122 69.365312 84.274510 -61.567163 58.105073 -26.856499 1.067013 45.317903 -6.605171 -5.046147 7.820111 5.315707 4.260319 -88.537204 -60.018313 -31.386954 -76.448647 -9.551324 -7.867518 5.730320 0.473270 17.073601 -9.679959 -1.990273 2.207016 -1.036578 -2.559620 -7.908659 7.483335 0.009568 0.046833 -0.001900 6.102927 10.727762 7.158707 8.162608 4.102710 0.095932 -1.124521 -5.298757 -7.628168 -0.023792 -0.058010 -0.008599
-163.625684 88.171647 197.997422 -29.651058 -7.840579 1.985820 3.530639 2.234603 2.008608 2.007004 1.295325 1.114860 2.512824 1.612973 1.400702 2.007005 1.295326 1.114861 -7.270184 17.744644 0.359290 -7.970362 -6.763099 2.074127 1.055296 -9.561595 -1.043664 -8.527813 -41.917207 69.122866 84.990681 -61.379906 57.429597 -26.608211 0.726585 44.939400 -6.432161 -5.094987 7.939533 5.234773 4.270602 -88.599138 -60.094634 -31.440554 -76.523463 -9.629986 -7.900110 5.810924 0.522498 17.085912 -9.660862 -1.999172 2.167873 -1.034777 -2.559794 -7.891757 7.484160 0.010120 0.044855 -0.001975 6.125763 10.734142 7.168559 8.164321 4.095466 0.097873 -1.109576 -5.309542 -7.629284 -0.024612 -0.053331 -0.009462
-163.630134 88.171069 198.008041 -29.691629 -7.831869 1.974600 3.503398 2.228123 2.043808 1.990739 1.292378 1.136450 2.492557 1.609222 1.427617 1.990740 1.292378 1.136451 -7.460364 17.686657 0.323591 -8.178053 -6.814299 2.081427 1.035362 -9.566559 -1.157504 -8.363876 -42.024568 68.894089 85.654404 -61.202083 56.799932 -26.391569 0.440995 44.640830 -6.265185 -5.144315 8.038536 5.149736 4.294305 -88.647312 -60.158035 -31.506154 -76.583488 -9.661329 -7.919847 5.855960 0.569542 17.103518 -9.642847 -2.012597 2.124956 -1.033664 -2.555184 -7.873183 7.484231 0.010401 0.042411 -0.001445 6.147472 10.746292 7.179049 8.163689 4.083953 0.096765 -1.093547 -5.317368 -7.630184 -0.025568 -0.050052 -0.009663
-163.634505 88.170480 198.018796 -29.736048 -7.825275 1.966771 3.479216 2.223298 2.077670 1.976198 1.290123 1.156859 2.474443 1.606338 1.453066 1.976199 1.290123 1.156859 -7.652141 17.634850 0.290042 -8.388814 -6.858276 2.091465 1.020173 -9.568796 -1.261846 -8.208876 -42.135678 68.678602 86.119964 -61.072636 56.358308 -26.197100 0.227680 44.411792 -6.110469 -5.191111 8.117584 5.060885 4.332014 -88.681825 -60.216937 -31.582096 -76.618731 -9.629558 -7.923362 5.860210 0.612078 17.122371 -9.629230 -2.021798 2.081179 -1.033704 -2.549005 -7.855275 7.484610 0.010995 0.041010 -0.000836 6.178554 10.762414 7.188915 8.173069 4.069096 0.093921 -1.090885 -5.322218 -7.630522 -0.026063 -0.048107 -0.009210
